<svg xmlns="http://www.w3.org/2000/svg" version="1.1" xmlns:xlink="http://www.w3.org/1999/xlink" xmlns:svgjs="http://svgjs.dev/svgjs" width="1000" height="1000" viewBox="0 0 1000 1000"><rect width="1000" height="1000" fill="#000000"></rect><g transform="matrix(0.7,0,0,0.7,149.5757577076708,393.91255744646884)"><svg viewBox="0 0 396 120" data-background-color="#ffbe79" preserveAspectRatio="xMidYMid meet" height="303" width="1000" xmlns="http://www.w3.org/2000/svg" xmlns:xlink="http://www.w3.org/1999/xlink"><defs></defs><g id="tight-bounds" transform="matrix(1,0,0,1,0.2400000746252431,0.021183905816769766)"><svg viewBox="0 0 395.52 119.95763218836645" height="119.95763218836645" width="395.52"><g><svg viewBox="0 0 596.4845713660252 180.90836574120416" height="119.95763218836645" width="395.52"><g transform="matrix(1,0,0,1,0,25.002531010542697)"><svg viewBox="0 0 395.52 130.90330372011877" height="130.90330372011877" width="395.52"><g><svg viewBox="0 0 395.52 130.90330372011877" height="130.90330372011877" width="395.52"><g><svg viewBox="0 0 395.52 84.95656324582338" height="84.95656324582338" width="395.52"><g transform="matrix(1,0,0,1,0,0)"><svg width="395.52" viewBox="3.9000000953674316 -35.5 167.5800018310547 36" height="84.95656324582338" data-palette-color="#374151"><path d="M3.9 0L3.9-35 20.6-35 20.6-32.4 6.7-32.4 6.7-20.65 16.25-20.65 15.3-17.9 6.7-17.9 6.7-2.5 20.5-2.5 20.5 0 3.9 0ZM27.15 0L27.15-35 43.85-35 43.85-32.35 29.95-32.35 29.95-20.65 38.5-20.65 37.35-17.9 29.95-17.9 29.95 0 27.15 0ZM49.4 0L49.4-35 66.09-35 66.09-32.35 52.2-32.35 52.2-20.65 60.75-20.65 59.6-17.9 52.2-17.9 52.2 0 49.4 0ZM74.39 0L74.39-32.45 71.04-32.55 71.04-35 77.19-35 77.19 0 74.39 0ZM89.44 0L89.44-32.5 80.94-32.5 80.94-35 101.04-35 101.04-32.5 92.24-32.5 92.24 0 89.44 0ZM104.94 0L104.94-35 121.64-35 121.64-32.4 107.74-32.4 107.74-20.65 117.29-20.65 116.34-17.9 107.74-17.9 107.74-2.5 121.54-2.5 121.54 0 104.94 0ZM145.64-1.15Q141.19 0.5 137.34 0.5L137.34 0.5Q132.99 0.5 130.29-1.8 127.59-4.1 127.59-9.15L127.59-9.15 127.59-25.2Q127.59-29 128.66-30.95 129.74-32.9 131.94-34.25L131.94-34.25Q134.14-35.5 137.34-35.5L137.34-35.5Q141.24-35.5 144.39-33.85L144.39-33.85 143.59-31.95Q140.74-33 138.19-33L138.19-33Q135.14-33 132.76-31.5 130.39-30 130.39-25.65L130.39-25.65 130.39-9.25Q130.39-5.8 132.19-3.93 133.99-2.05 137.59-2.05L137.59-2.05Q140.74-2.05 145.04-3.5L145.04-3.5 145.64-1.15ZM168.68 0L168.68-17.9 152.78-17.9 152.78 0 149.98 0 149.98-35 152.78-35 152.78-20.65 168.68-20.65 168.68-35 171.48-35 171.48 0 168.68 0Z" opacity="1" transform="matrix(1,0,0,1,0,0)" fill="#ffffff" class="undefined-text-0" data-fill-palette-color="primary" id="text-0"></path></svg></g></svg></g><g transform="matrix(1,0,0,1,163.31020800000002,105.01276887064438)"><svg viewBox="0 0 232.20979199999996 25.89053484947439" height="25.89053484947439" width="232.20979199999996"><g transform="matrix(1,0,0,1,0,0)"><svg width="232.20979199999996" viewBox="4.519999980926514 -38.0099983215332 436.57000732421875 48.68000030517578" height="25.89053484947439" data-palette-color="#374151"><path d="M26.61-2.54L26.61 0 6.62 0 6.62-2.54 26.61-2.54ZM7.52-35.55L7.52 0 4.52 0 4.52-35.55 7.52-35.55ZM24.12-19.6L24.12-17.04 6.62-17.04 6.62-19.6 24.12-19.6ZM26.49-35.55L26.49-32.98 6.62-32.98 6.62-35.55 26.49-35.55ZM36.84 0L33.93 0 33.93-29.71Q33.93-33.72 36.01-35.86 38.08-38.01 41.72-38.01L41.72-38.01Q42.5-38.01 43.3-37.93 44.09-37.84 44.85-37.6L44.85-37.6 44.63-35.18Q44.02-35.33 43.39-35.39 42.77-35.45 41.94-35.45L41.94-35.45Q39.57-35.45 38.21-33.95 36.84-32.45 36.84-29.71L36.84-29.71 36.84 0ZM43.16-26.42L43.16-24.02 29.56-24.02 29.56-26.42 43.16-26.42ZM53.39 0L50.48 0 50.48-29.71Q50.48-33.72 52.56-35.86 54.63-38.01 58.27-38.01L58.27-38.01Q59.05-38.01 59.85-37.93 60.64-37.84 61.4-37.6L61.4-37.6 61.18-35.18Q60.57-35.33 59.94-35.39 59.32-35.45 58.49-35.45L58.49-35.45Q56.12-35.45 54.76-33.95 53.39-32.45 53.39-29.71L53.39-29.71 53.39 0ZM59.71-26.42L59.71-24.02 46.11-24.02 46.11-26.42 59.71-26.42ZM68.18-26.42L68.18 0 65.28 0 65.28-26.42 68.18-26.42ZM64.76-34.06L64.76-34.06Q64.76-34.89 65.29-35.46 65.81-36.04 66.74-36.04L66.74-36.04Q67.69-36.04 68.23-35.46 68.77-34.89 68.77-34.06L68.77-34.06Q68.77-33.25 68.23-32.69 67.69-32.13 66.74-32.13L66.74-32.13Q65.81-32.13 65.29-32.69 64.76-33.25 64.76-34.06ZM85.9-1.98L85.9-1.98Q87.76-1.98 89.38-2.7 91.01-3.42 92.07-4.8 93.13-6.18 93.28-8.18L93.28-8.18 96.08-8.18Q95.96-5.66 94.55-3.7 93.13-1.73 90.87-0.62 88.61 0.49 85.9 0.49L85.9 0.49Q82.22 0.49 79.7-1.26 77.19-3 75.92-5.99 74.65-8.98 74.65-12.7L74.65-12.7 74.65-13.72Q74.65-17.46 75.93-20.43 77.21-23.41 79.71-25.16 82.22-26.9 85.88-26.9L85.88-26.9Q88.71-26.9 90.97-25.76 93.23-24.61 94.59-22.51 95.96-20.41 96.08-17.53L96.08-17.53 93.28-17.53Q93.15-19.65 92.15-21.2 91.15-22.75 89.52-23.6 87.88-24.44 85.88-24.44L85.88-24.44Q82.9-24.44 81.06-22.92 79.21-21.41 78.38-18.97 77.55-16.53 77.55-13.72L77.55-13.72 77.55-12.7Q77.55-9.89 78.38-7.43 79.21-4.98 81.06-3.48 82.9-1.98 85.9-1.98ZM118.01-4.74L118.01-18.36Q118.01-21.19 116.25-22.83 114.49-24.46 111.19-24.46L111.19-24.46Q109.14-24.46 107.54-23.74 105.94-23.02 105.03-21.81 104.11-20.61 104.11-19.12L104.11-19.12 101.18-19.14Q101.18-21.14 102.47-22.91 103.75-24.68 106.03-25.79 108.31-26.9 111.32-26.9L111.32-26.9Q114.15-26.9 116.31-25.95 118.47-25 119.7-23.1 120.93-21.19 120.93-18.31L120.93-18.31 120.93-5.54Q120.93-4.17 121.14-2.71 121.35-1.25 121.74-0.29L121.74-0.29 121.74 0 118.62 0Q118.32-0.88 118.16-2.21 118.01-3.54 118.01-4.74L118.01-4.74ZM118.69-15.38L118.74-13.13 113-13.13Q108.53-13.13 106.01-11.56 103.48-9.99 103.48-7.28L103.48-7.28Q103.48-5.13 105.08-3.61 106.68-2.1 109.41-2.1L109.41-2.1Q111.85-2.1 113.72-2.99 115.59-3.88 116.8-5.37 118.01-6.86 118.44-8.59L118.44-8.59 119.71-6.91Q119.4-5.69 118.55-4.41 117.71-3.13 116.37-2.01 115.03-0.9 113.21-0.21 111.39 0.49 109.09 0.49L109.09 0.49Q106.51 0.49 104.59-0.49 102.67-1.46 101.61-3.16 100.55-4.86 100.55-7.01L100.55-7.01Q100.55-10.91 103.78-13.15 107.02-15.38 112.61-15.38L112.61-15.38 118.69-15.38ZM138.49-1.98L138.49-1.98Q140.34-1.98 141.96-2.7 143.59-3.42 144.65-4.8 145.71-6.18 145.86-8.18L145.86-8.18 148.67-8.18Q148.54-5.66 147.13-3.7 145.71-1.73 143.45-0.62 141.2 0.49 138.49 0.49L138.49 0.49Q134.8 0.49 132.28-1.26 129.77-3 128.5-5.99 127.23-8.98 127.23-12.7L127.23-12.7 127.23-13.72Q127.23-17.46 128.51-20.43 129.79-23.41 132.3-25.16 134.8-26.9 138.46-26.9L138.46-26.9Q141.29-26.9 143.55-25.76 145.81-24.61 147.18-22.51 148.54-20.41 148.67-17.53L148.67-17.53 145.86-17.53Q145.74-19.65 144.74-21.2 143.74-22.75 142.1-23.6 140.46-24.44 138.46-24.44L138.46-24.44Q135.48-24.44 133.64-22.92 131.8-21.41 130.97-18.97 130.14-16.53 130.14-13.72L130.14-13.72 130.14-12.7Q130.14-9.89 130.97-7.43 131.8-4.98 133.64-3.48 135.48-1.98 138.49-1.98ZM162.34-2.64L170.59-26.42 173.74-26.42 162.56 4.25Q162.21 5.15 161.69 6.25 161.16 7.35 160.33 8.36 159.5 9.38 158.23 10.02 156.96 10.67 155.16 10.67L155.16 10.67Q154.84 10.67 154.4 10.62 153.96 10.57 153.55 10.5 153.13 10.42 152.91 10.35L152.91 10.35 152.91 7.91Q153.18 7.98 153.69 8.03 154.21 8.08 154.4 8.08L154.4 8.08Q156.79 8.08 158.08 6.87 159.36 5.66 160.16 3.3L160.16 3.3 162.34-2.64ZM154.67-26.42L163.09-3.71 163.87-0.68 161.73 0.51 151.5-26.42 154.67-26.42ZM196.17-19.17L201.88-23.46Q203.44-24.61 204.46-25.94 205.47-27.27 205.47-29.08L205.47-29.08Q205.47-30.81 204.23-32.19 202.98-33.57 200.64-33.57L200.64-33.57Q198.07-33.57 196.74-31.93 195.41-30.3 195.41-28.05L195.41-28.05Q195.41-26.29 196.46-24.33 197.51-22.36 199.42-20.17L199.42-20.17 216.73 0 213.19 0 198.46-17.11Q195.75-20.26 194.12-22.74 192.48-25.22 192.48-27.95L192.48-27.95Q192.48-30.47 193.48-32.28 194.48-34.08 196.32-35.07 198.15-36.06 200.64-36.06L200.64-36.06Q203.03-36.06 204.74-35.1 206.45-34.13 207.34-32.56 208.23-30.98 208.23-29.08L208.23-29.08Q208.23-27.49 207.53-26.12 206.84-24.76 205.75-23.65 204.67-22.53 203.49-21.61L203.49-21.61 196.97-16.63Q194.9-14.92 193.87-13.5 192.85-12.08 192.53-10.97 192.21-9.86 192.21-9.06L192.21-9.06Q192.21-7.2 193.09-5.58 193.97-3.96 195.78-2.97 197.58-1.98 200.34-1.98L200.34-1.98Q202.61-1.98 204.76-2.99 206.91-4 208.6-5.85 210.28-7.69 211.28-10.24 212.28-12.79 212.28-15.92L212.28-15.92 214.99-15.92Q214.99-12.45 213.98-9.64 212.97-6.84 211.01-4.69L211.01-4.69Q210.82-4.44 210.76-4.31 210.7-4.17 210.5-3.96L210.5-3.96Q208.55-1.9 205.91-0.71 203.27 0.49 200.34 0.49L200.34 0.49Q196.93 0.49 194.45-0.71 191.97-1.9 190.63-4.05 189.28-6.2 189.28-9.06L189.28-9.06Q189.28-11.21 190.2-12.93 191.12-14.65 192.68-16.16 194.24-17.68 196.17-19.17L196.17-19.17ZM256.2-2.54L256.2 0 236.2 0 236.2-2.54 256.2-2.54ZM237.11-35.55L237.11 0 234.1 0 234.1-35.55 237.11-35.55ZM253.71-19.6L253.71-17.04 236.2-17.04 236.2-19.6 253.71-19.6ZM256.08-35.55L256.08-32.98 236.2-32.98 236.2-35.55 256.08-35.55ZM266.43 0L263.52 0 263.52-29.71Q263.52-33.72 265.6-35.86 267.67-38.01 271.31-38.01L271.31-38.01Q272.09-38.01 272.88-37.93 273.68-37.84 274.43-37.6L274.43-37.6 274.21-35.18Q273.6-35.33 272.98-35.39 272.36-35.45 271.53-35.45L271.53-35.45Q269.16-35.45 267.79-33.95 266.43-32.45 266.43-29.71L266.43-29.71 266.43 0ZM272.75-26.42L272.75-24.02 259.15-24.02 259.15-26.42 272.75-26.42ZM282.98 0L280.07 0 280.07-29.71Q280.07-33.72 282.15-35.86 284.22-38.01 287.86-38.01L287.86-38.01Q288.64-38.01 289.43-37.93 290.23-37.84 290.98-37.6L290.98-37.6 290.76-35.18Q290.15-35.33 289.53-35.39 288.91-35.45 288.08-35.45L288.08-35.45Q285.71-35.45 284.34-33.95 282.98-32.45 282.98-29.71L282.98-29.71 282.98 0ZM289.3-26.42L289.3-24.02 275.7-24.02 275.7-26.42 289.3-26.42ZM297.77-26.42L297.77 0 294.86 0 294.86-26.42 297.77-26.42ZM294.35-34.06L294.35-34.06Q294.35-34.89 294.87-35.46 295.4-36.04 296.33-36.04L296.33-36.04Q297.28-36.04 297.82-35.46 298.35-34.89 298.35-34.06L298.35-34.06Q298.35-33.25 297.82-32.69 297.28-32.13 296.33-32.13L296.33-32.13Q295.4-32.13 294.87-32.69 294.35-33.25 294.35-34.06ZM315.49-1.98L315.49-1.98Q317.35-1.98 318.97-2.7 320.59-3.42 321.65-4.8 322.72-6.18 322.86-8.18L322.86-8.18 325.67-8.18Q325.55-5.66 324.13-3.7 322.72-1.73 320.46-0.62 318.2 0.49 315.49 0.49L315.49 0.49Q311.8 0.49 309.29-1.26 306.77-3 305.5-5.99 304.23-8.98 304.23-12.7L304.23-12.7 304.23-13.72Q304.23-17.46 305.52-20.43 306.8-23.41 309.3-25.16 311.8-26.9 315.47-26.9L315.47-26.9Q318.3-26.9 320.56-25.76 322.81-24.61 324.18-22.51 325.55-20.41 325.67-17.53L325.67-17.53 322.86-17.53Q322.74-19.65 321.74-21.2 320.74-22.75 319.1-23.6 317.47-24.44 315.47-24.44L315.47-24.44Q312.49-24.44 310.64-22.92 308.8-21.41 307.97-18.97 307.14-16.53 307.14-13.72L307.14-13.72 307.14-12.7Q307.14-9.89 307.97-7.43 308.8-4.98 310.64-3.48 312.49-1.98 315.49-1.98ZM334.77-26.42L334.77 0 331.87 0 331.87-26.42 334.77-26.42ZM331.36-34.06L331.36-34.06Q331.36-34.89 331.88-35.46 332.41-36.04 333.33-36.04L333.33-36.04Q334.29-36.04 334.82-35.46 335.36-34.89 335.36-34.06L335.36-34.06Q335.36-33.25 334.82-32.69 334.29-32.13 333.33-32.13L333.33-32.13Q332.41-32.13 331.88-32.69 331.36-33.25 331.36-34.06ZM352.96 0.49L352.96 0.49Q349.52 0.49 346.84-1.18 344.17-2.86 342.65-5.77 341.12-8.69 341.12-12.48L341.12-12.48 341.12-13.53Q341.12-17.6 342.69-20.61 344.27-23.61 346.84-25.26 349.42-26.9 352.42-26.9L352.42-26.9Q355.79-26.9 358.14-25.35 360.48-23.8 361.69-21.07 362.9-18.33 362.9-14.82L362.9-14.82 362.9-13.04 342.9-13.04 342.9-15.5 359.97-15.5 359.97-15.84Q359.92-18.07 359.08-20.02 358.23-21.97 356.57-23.21 354.91-24.44 352.42-24.44L352.42-24.44Q349.96-24.44 348.05-23.05 346.15-21.66 345.1-19.2 344.05-16.75 344.05-13.53L344.05-13.53 344.05-12.48Q344.05-9.55 345.18-7.18 346.32-4.81 348.37-3.39 350.42-1.98 353.08-1.98L353.08-1.98Q355.43-1.98 357.23-2.84 359.04-3.71 360.48-5.59L360.48-5.59 362.34-4.2Q361.04-2.27 358.78-0.89 356.52 0.49 352.96 0.49ZM371.51-20.78L371.51 0 368.58 0 368.58-26.42 371.39-26.42 371.51-20.78ZM370.88-14.87L369.56-15.6Q369.75-18.7 371.1-21.26 372.44-23.83 374.75-25.37 377.05-26.9 380.08-26.9L380.08-26.9Q382.74-26.9 384.62-25.93 386.5-24.95 387.52-22.81 388.53-20.68 388.53-17.19L388.53-17.19 388.53 0 385.6 0 385.6-17.21Q385.6-19.95 384.84-21.51 384.09-23.07 382.69-23.73 381.3-24.39 379.4-24.39L379.4-24.39Q377.3-24.39 375.72-23.47 374.15-22.56 373.09-21.11 372.03-19.65 371.46-17.99 370.9-16.33 370.88-14.87L370.88-14.87ZM405.84-1.98L405.84-1.98Q407.69-1.98 409.32-2.7 410.94-3.42 412-4.8 413.06-6.18 413.21-8.18L413.21-8.18 416.02-8.18Q415.89-5.66 414.48-3.7 413.06-1.73 410.8-0.62 408.55 0.49 405.84 0.49L405.84 0.49Q402.15 0.49 399.64-1.26 397.12-3 395.85-5.99 394.58-8.98 394.58-12.7L394.58-12.7 394.58-13.72Q394.58-17.46 395.86-20.43 397.14-23.41 399.65-25.16 402.15-26.9 405.81-26.9L405.81-26.9Q408.64-26.9 410.9-25.76 413.16-24.61 414.53-22.51 415.89-20.41 416.02-17.53L416.02-17.53 413.21-17.53Q413.09-19.65 412.09-21.2 411.09-22.75 409.45-23.6 407.81-24.44 405.81-24.44L405.81-24.44Q402.83-24.44 400.99-22.92 399.15-21.41 398.32-18.97 397.49-16.53 397.49-13.72L397.49-13.72 397.49-12.7Q397.49-9.89 398.32-7.43 399.15-4.98 400.99-3.48 402.83-1.98 405.84-1.98ZM429.69-2.64L437.94-26.42 441.09-26.42 429.91 4.25Q429.56 5.15 429.04 6.25 428.51 7.35 427.68 8.36 426.85 9.38 425.58 10.02 424.32 10.67 422.51 10.67L422.51 10.67Q422.19 10.67 421.75 10.62 421.31 10.57 420.9 10.5 420.48 10.42 420.26 10.35L420.26 10.35 420.26 7.91Q420.53 7.98 421.04 8.03 421.56 8.08 421.75 8.08L421.75 8.08Q424.14 8.08 425.43 6.87 426.71 5.66 427.51 3.3L427.51 3.3 429.69-2.64ZM422.02-26.42L430.44-3.71 431.22-0.68 429.08 0.51 418.85-26.42 422.02-26.42Z" opacity="1" transform="matrix(1,0,0,1,0,0)" fill="#ffffff" class="undefined-text-1" data-fill-palette-color="secondary" id="text-1"></path></svg></g></svg></g></svg></g></svg></g><g transform="matrix(1,0,0,1,415.576205624821,0)"><svg viewBox="0 0 180.90836574120416 180.90836574120416" height="180.90836574120416" width="180.90836574120416"><g data-palette-color="#374151"><rect width="49.44828663592914" height="180.90836574120416" fill="#ffffff" stroke="transparent" data-fill-palette-color="accent" x="0" fill-opacity="1"></rect><rect width="49.44828663592914" height="180.90836574120416" fill="#ffffff" stroke="transparent" data-fill-palette-color="accent" x="60.30278858040139" fill-opacity="0.75"></rect><rect width="49.44828663592914" height="180.90836574120416" fill="#ffffff" stroke="transparent" data-fill-palette-color="accent" x="120.60557716080278" fill-opacity="0.5"></rect></g></svg></g></svg></g></svg><rect width="395.52" height="119.95763218836645" fill="none" stroke="none" visibility="hidden"></rect></g></svg></g></svg>